ffmpeg started on 2025-05-05 at 10:26:22
Report written to "D:\Convert\FFMetrics\reports\ssim_report-6.txt"
Log level: 32
Command line:
ffmpeg -hide_banner -nostdin -i "G:\\\xc0\xed\xe8\xec\xe5\\\xce\xed\xe3\xee\xe8\xed\xe3\xe8\\!_35_\xcb\xe5\xf2\xee_2024\\JamClub-1\\\xcb\xfe\xe4\xe8 \xef\xee\xe4\xe7\xe5\xec\xe5\xeb\xfc\xff\\JamClub_Dungeon_no_Naka_no_Hito_04_1080p_HEVC.mkv" -i "G:\\\xc0\xed\xe8\xec\xe5\\\xce\xed\xe3\xee\xe8\xed\xe3\xe8\\!_35_\xcb\xe5\xf2\xee_2024\\JamClub-1\\\xcb\xfe\xe4\xe8 \xef\xee\xe4\xe7\xe5\xec\xe5\xeb\xfc\xff\\JamClub_Dungeon_no_Naka_no_Hito_04_1080p.mp4" -lavfi "[0:v]settb=AVTB,setpts=PTS-STARTPTS,format=pix_fmts=yuv420p10,fps=24000/1001,scale=1920:1080:flags=bicubic[main];[1:v]settb=AVTB,setpts=PTS-STARTPTS,format=pix_fmts=yuv420p,fps=24000/1001,scale=1920:1080:flags=bicubic[ref];[main][ref]ssim=eof_action=endall:stats_file='D\\:/Convert/FFMetrics/logs/ssim_logfile-6.txt'" -f null -
Input #0, matroska,webm, from 'G:\Аниме\Онгоинги\!_35_Лето_2024\JamClub-1\Люди подземелья\JamClub_Dungeon_no_Naka_no_Hito_04_1080p_HEVC.mkv':
  Metadata:
    COMPATIBLE_BRANDS: isomiso2avc1mp41
    MAJOR_BRAND     : isom
    MINOR_VERSION   : 512
    ENCODER         : Lavf61.7.100
  Duration: 00:24:51.71, start: -0.021000, bitrate: 1108 kb/s
  Stream #0:0: Video: hevc (Main 10), yuv420p10le(tv, bt709, progressive), 1920x1080 [SAR 1:1 DAR 16:9], 23.98 fps, 23.98 tbr, 1k tbn (default)
      Metadata:
        HANDLER_NAME    : VideoHandler
        VENDOR_ID       : [0][0][0][0]
        ENCODER         : Lavc61.19.100 libx265
        BPS             : 910969
        DURATION        : 00:24:51.614708333
        NUMBER_OF_FRAMES: 35763
        NUMBER_OF_BYTES : 169851922
        _STATISTICS_WRITING_APP: mkvpropedit v66.0.0 ('Josie') 64-bit
        _STATISTICS_WRITING_DATE_UTC: 2025-05-04 13:21:16
        _STATISTICS_TAGS: BPS DURATION NUMBER_OF_FRAMES NUMBER_OF_BYTES
  Stream #0:1(eng): Audio: aac (LC), 48000 Hz, stereo, fltp (default)
      Metadata:
        HANDLER_NAME    : SoundHandler
        VENDOR_ID       : [0][0][0][0]
        ENCODER         : Lavc61.19.100 aac
        BPS             : 193999
        DURATION        : 00:24:51.693000000
        NUMBER_OF_FRAMES: 69924
        NUMBER_OF_BYTES : 36173545
        _STATISTICS_WRITING_APP: mkvpropedit v66.0.0 ('Josie') 64-bit
        _STATISTICS_WRITING_DATE_UTC: 2025-05-04 13:21:16
        _STATISTICS_TAGS: BPS DURATION NUMBER_OF_FRAMES NUMBER_OF_BYTES
Input #1, mov,mp4,m4a,3gp,3g2,mj2, from 'G:\Аниме\Онгоинги\!_35_Лето_2024\JamClub-1\Люди подземелья\JamClub_Dungeon_no_Naka_no_Hito_04_1080p.mp4':
  Metadata:
    major_brand     : isom
    minor_version   : 512
    compatible_brands: isomiso2avc1mp41
    encoder         : Lavf60.16.100
  Duration: 00:24:51.69, start: 0.000000, bitrate: 3579 kb/s
  Stream #1:0[0x1](und): Video: h264 (High) (avc1 / 0x31637661), yuv420p(tv, bt709, progressive), 1920x1080 [SAR 1:1 DAR 16:9], 3380 kb/s, 23.98 fps, 23.98 tbr, 90k tbn (default)
      Metadata:
        handler_name    : VideoHandler
        vendor_id       : [0][0][0][0]
  Stream #1:1[0x2](eng): Audio: aac (LC) (mp4a / 0x6134706D), 48000 Hz, stereo, fltp, 191 kb/s (default)
      Metadata:
        handler_name    : SoundHandler
        vendor_id       : [0][0][0][0]
Stream mapping:
  Stream #0:0 (hevc) -> settb:default
  Stream #1:0 (h264) -> settb:default
  ssim:default -> Stream #0:0 (wrapped_avframe)
  Stream #0:1 -> #0:1 (aac (native) -> pcm_s16le (native))
Output #0, null, to 'pipe:':
  Metadata:
    COMPATIBLE_BRANDS: isomiso2avc1mp41
    MAJOR_BRAND     : isom
    MINOR_VERSION   : 512
    encoder         : Lavf61.7.100
  Stream #0:0: Video: wrapped_avframe, yuv420p10le(tv, bt709, progressive), 1920x1080 [SAR 1:1 DAR 16:9], q=2-31, 200 kb/s, 23.98 fps, 23.98 tbn
      Metadata:
        encoder         : Lavc61.19.100 wrapped_avframe
  Stream #0:1(eng): Audio: pcm_s16le, 48000 Hz, stereo, s16, 1536 kb/s (default)
      Metadata:
        HANDLER_NAME    : SoundHandler
        VENDOR_ID       : [0][0][0][0]
        _STATISTICS_TAGS: BPS DURATION NUMBER_OF_FRAMES NUMBER_OF_BYTES
        BPS             : 193999
        DURATION        : 00:24:51.693000000
        NUMBER_OF_FRAMES: 69924
        NUMBER_OF_BYTES : 36173545
        _STATISTICS_WRITING_APP: mkvpropedit v66.0.0 ('Josie') 64-bit
        _STATISTICS_WRITING_DATE_UTC: 2025-05-04 13:21:16
        encoder         : Lavc61.19.100 pcm_s16le
frame=  114 fps=0.0 q=-0.0 size=N/A time=00:00:04.75 bitrate=N/A speed=9.26x    frame=  279 fps=270 q=-0.0 size=N/A time=00:00:11.63 bitrate=N/A speed=11.2x    frame=  479 fps=310 q=-0.0 size=N/A time=00:00:19.97 bitrate=N/A speed=12.9x    frame=  728 fps=353 q=-0.0 size=N/A time=00:00:30.36 bitrate=N/A speed=14.7x    frame=  977 fps=378 q=-0.0 size=N/A time=00:00:40.74 bitrate=N/A speed=15.7x    frame= 1203 fps=389 q=-0.0 size=N/A time=00:00:50.17 bitrate=N/A speed=16.2x    frame= 1434 fps=398 q=-0.0 size=N/A time=00:00:59.80 bitrate=N/A speed=16.6x    frame= 1650 fps=399 q=-0.0 size=N/A time=00:01:08.81 bitrate=N/A speed=16.7x    frame= 1832 fps=395 q=-0.0 size=N/A time=00:01:16.40 bitrate=N/A speed=16.5x    frame= 2074 fps=402 q=-0.0 size=N/A time=00:01:26.50 bitrate=N/A speed=16.8x    frame= 2293 fps=404 q=-0.0 size=N/A time=00:01:35.63 bitrate=N/A speed=16.8x    frame= 2506 fps=405 q=-0.0 size=N/A time=00:01:44.52 bitrate=N/A speed=16.9x    frame= 2678 fps=399 q=-0.0 size=N/A time=00:01:51.69 bitrate=N/A speed=16.7x    frame= 2850 fps=395 q=-0.0 size=N/A time=00:01:58.86 bitrate=N/A speed=16.5x    frame= 3070 fps=397 q=-0.0 size=N/A time=00:02:08.04 bitrate=N/A speed=16.5x    frame= 3288 fps=399 q=-0.0 size=N/A time=00:02:17.13 bitrate=N/A speed=16.6x    frame= 3545 fps=404 q=-0.0 size=N/A time=00:02:27.85 bitrate=N/A speed=16.9x    frame= 3812 fps=411 q=-0.0 size=N/A time=00:02:38.99 bitrate=N/A speed=17.1x    frame= 4035 fps=412 q=-0.0 size=N/A time=00:02:48.29 bitrate=N/A speed=17.2x    frame= 4279 fps=415 q=-0.0 size=N/A time=00:02:58.46 bitrate=N/A speed=17.3x    frame= 4550 fps=420 q=-0.0 size=N/A time=00:03:09.77 bitrate=N/A speed=17.5x    frame= 4799 fps=423 q=-0.0 size=N/A time=00:03:20.15 bitrate=N/A speed=17.6x    frame= 4993 fps=421 q=-0.0 size=N/A time=00:03:28.24 bitrate=N/A speed=17.6x    frame= 5267 fps=426 q=-0.0 size=N/A time=00:03:39.67 bitrate=N/A speed=17.8x    frame= 5554 fps=431 q=-0.0 size=N/A time=00:03:51.64 bitrate=N/A speed=  18x    frame= 5772 fps=431 q=-0.0 size=N/A time=00:04:00.74 bitrate=N/A speed=  18x    frame= 6060 fps=435 q=-0.0 size=N/A time=00:04:12.75 bitrate=N/A speed=18.1x    frame= 6323 fps=438 q=-0.0 size=N/A time=00:04:23.72 bitrate=N/A speed=18.3x    frame= 6587 fps=440 q=-0.0 size=N/A time=00:04:34.73 bitrate=N/A speed=18.4x    frame= 6837 fps=442 q=-0.0 size=N/A time=00:04:45.15 bitrate=N/A speed=18.4x    frame= 7085 fps=443 q=-0.0 size=N/A time=00:04:55.50 bitrate=N/A speed=18.5x    frame= 7358 fps=446 q=-0.0 size=N/A time=00:05:06.88 bitrate=N/A speed=18.6x    frame= 7638 fps=449 q=-0.0 size=N/A time=00:05:18.56 bitrate=N/A speed=18.7x    frame= 7851 fps=448 q=-0.0 size=N/A time=00:05:27.45 bitrate=N/A speed=18.7x    frame= 8074 fps=447 q=-0.0 size=N/A time=00:05:36.75 bitrate=N/A speed=18.7x    frame= 8313 fps=448 q=-0.0 size=N/A time=00:05:46.72 bitrate=N/A speed=18.7x    frame= 8579 fps=449 q=-0.0 size=N/A time=00:05:57.81 bitrate=N/A speed=18.7x    frame= 8839 fps=451 q=-0.0 size=N/A time=00:06:08.65 bitrate=N/A speed=18.8x    frame= 9120 fps=453 q=-0.0 size=N/A time=00:06:20.38 bitrate=N/A speed=18.9x    frame= 9365 fps=454 q=-0.0 size=N/A time=00:06:30.59 bitrate=N/A speed=18.9x    frame= 9607 fps=454 q=-0.0 size=N/A time=00:06:40.69 bitrate=N/A speed=  19x    frame= 9868 fps=455 q=-0.0 size=N/A time=00:06:51.57 bitrate=N/A speed=  19x    frame=10155 fps=458 q=-0.0 size=N/A time=00:07:03.54 bitrate=N/A speed=19.1x    frame=10430 fps=459 q=-0.0 size=N/A time=00:07:15.01 bitrate=N/A speed=19.2x    frame=10683 fps=460 q=-0.0 size=N/A time=00:07:25.57 bitrate=N/A speed=19.2x    frame=10963 fps=462 q=-0.0 size=N/A time=00:07:37.24 bitrate=N/A speed=19.3x    frame=11225 fps=463 q=-0.0 size=N/A time=00:07:48.17 bitrate=N/A speed=19.3x    frame=11492 fps=464 q=-0.0 size=N/A time=00:07:59.31 bitrate=N/A speed=19.4x    frame=11775 fps=466 q=-0.0 size=N/A time=00:08:11.11 bitrate=N/A speed=19.4x    frame=12063 fps=468 q=-0.0 size=N/A time=00:08:23.12 bitrate=N/A speed=19.5x    frame=12307 fps=468 q=-0.0 size=N/A time=00:08:33.30 bitrate=N/A speed=19.5x    frame=12568 fps=468 q=-0.0 size=N/A time=00:08:44.19 bitrate=N/A speed=19.5x    frame=12842 fps=470 q=-0.0 size=N/A time=00:08:55.61 bitrate=N/A speed=19.6x    frame=13072 fps=469 q=-0.0 size=N/A time=00:09:05.21 bitrate=N/A speed=19.6x    frame=13341 fps=470 q=-0.0 size=N/A time=00:09:16.43 bitrate=N/A speed=19.6x    frame=13612 fps=471 q=-0.0 size=N/A time=00:09:27.73 bitrate=N/A speed=19.7x    frame=13868 fps=472 q=-0.0 size=N/A time=00:09:38.41 bitrate=N/A speed=19.7x    frame=14138 fps=472 q=-0.0 size=N/A time=00:09:49.67 bitrate=N/A speed=19.7x    frame=14374 fps=472 q=-0.0 size=N/A time=00:09:59.51 bitrate=N/A speed=19.7x    frame=14649 fps=473 q=-0.0 size=N/A time=00:10:10.98 bitrate=N/A speed=19.7x    frame=14914 fps=474 q=-0.0 size=N/A time=00:10:22.03 bitrate=N/A speed=19.8x    frame=15155 fps=474 q=-0.0 size=N/A time=00:10:32.08 bitrate=N/A speed=19.8x    frame=15435 fps=475 q=-0.0 size=N/A time=00:10:43.76 bitrate=N/A speed=19.8x    frame=15701 fps=475 q=-0.0 size=N/A time=00:10:54.86 bitrate=N/A speed=19.8x    frame=15944 fps=475 q=-0.0 size=N/A time=00:11:04.99 bitrate=N/A speed=19.8x    frame=16217 fps=476 q=-0.0 size=N/A time=00:11:16.38 bitrate=N/A speed=19.8x    frame=16495 fps=477 q=-0.0 size=N/A time=00:11:27.97 bitrate=N/A speed=19.9x    frame=16779 fps=478 q=-0.0 size=N/A time=00:11:39.82 bitrate=N/A speed=19.9x    frame=17051 fps=479 q=-0.0 size=N/A time=00:11:51.16 bitrate=N/A speed=  20x    frame=17336 fps=480 q=-0.0 size=N/A time=00:12:03.05 bitrate=N/A speed=  20x    frame=17599 fps=480 q=-0.0 size=N/A time=00:12:14.02 bitrate=N/A speed=  20x    frame=17863 fps=480 q=-0.0 size=N/A time=00:12:25.03 bitrate=N/A speed=  20x    frame=18099 fps=480 q=-0.0 size=N/A time=00:12:34.87 bitrate=N/A speed=  20x    frame=18379 fps=481 q=-0.0 size=N/A time=00:12:46.55 bitrate=N/A speed=20.1x    frame=18652 fps=482 q=-0.0 size=N/A time=00:12:57.94 bitrate=N/A speed=20.1x    frame=18903 fps=482 q=-0.0 size=N/A time=00:13:08.41 bitrate=N/A speed=20.1x    frame=19171 fps=482 q=-0.0 size=N/A time=00:13:19.59 bitrate=N/A speed=20.1x    frame=19453 fps=483 q=-0.0 size=N/A time=00:13:31.35 bitrate=N/A speed=20.1x    frame=19715 fps=483 q=-0.0 size=N/A time=00:13:42.27 bitrate=N/A speed=20.2x    frame=19980 fps=484 q=-0.0 size=N/A time=00:13:53.33 bitrate=N/A speed=20.2x    frame=20196 fps=483 q=-0.0 size=N/A time=00:14:02.34 bitrate=N/A speed=20.1x    frame=20403 fps=482 q=-0.0 size=N/A time=00:14:10.97 bitrate=N/A speed=20.1x    frame=20628 fps=482 q=-0.0 size=N/A time=00:14:20.35 bitrate=N/A speed=20.1x    frame=20857 fps=481 q=-0.0 size=N/A time=00:14:29.91 bitrate=N/A speed=20.1x    frame=21147 fps=482 q=-0.0 size=N/A time=00:14:42.00 bitrate=N/A speed=20.1x    frame=21413 fps=482 q=-0.0 size=N/A time=00:14:53.10 bitrate=N/A speed=20.1x    frame=21679 fps=483 q=-0.0 size=N/A time=00:15:04.19 bitrate=N/A speed=20.1x    frame=21963 fps=484 q=-0.0 size=N/A time=00:15:16.04 bitrate=N/A speed=20.2x    frame=22204 fps=483 q=-0.0 size=N/A time=00:15:26.09 bitrate=N/A speed=20.2x    frame=22462 fps=484 q=-0.0 size=N/A time=00:15:36.85 bitrate=N/A speed=20.2x    frame=22738 fps=484 q=-0.0 size=N/A time=00:15:48.36 bitrate=N/A speed=20.2x    frame=22960 fps=484 q=-0.0 size=N/A time=00:15:57.62 bitrate=N/A speed=20.2x    frame=23217 fps=484 q=-0.0 size=N/A time=00:16:08.34 bitrate=N/A speed=20.2x    frame=23471 fps=484 q=-0.0 size=N/A time=00:16:18.93 bitrate=N/A speed=20.2x    frame=23749 fps=484 q=-0.0 size=N/A time=00:16:30.53 bitrate=N/A speed=20.2x    frame=24026 fps=485 q=-0.0 size=N/A time=00:16:42.08 bitrate=N/A speed=20.2x    frame=24306 fps=485 q=-0.0 size=N/A time=00:16:53.76 bitrate=N/A speed=20.2x    frame=24569 fps=486 q=-0.0 size=N/A time=00:17:04.73 bitrate=N/A speed=20.3x    frame=24813 fps=486 q=-0.0 size=N/A time=00:17:14.90 bitrate=N/A speed=20.3x    frame=25052 fps=485 q=-0.0 size=N/A time=00:17:24.87 bitrate=N/A speed=20.2x    frame=25283 fps=485 q=-0.0 size=N/A time=00:17:34.51 bitrate=N/A speed=20.2x    frame=25533 fps=485 q=-0.0 size=N/A time=00:17:44.93 bitrate=N/A speed=20.2x    frame=25787 fps=485 q=-0.0 size=N/A time=00:17:55.53 bitrate=N/A speed=20.2x    frame=26066 fps=485 q=-0.0 size=N/A time=00:18:07.16 bitrate=N/A speed=20.2x    frame=26354 fps=486 q=-0.0 size=N/A time=00:18:19.18 bitrate=N/A speed=20.3x    frame=26610 fps=486 q=-0.0 size=N/A time=00:18:29.85 bitrate=N/A speed=20.3x    frame=26880 fps=486 q=-0.0 size=N/A time=00:18:41.12 bitrate=N/A speed=20.3x    frame=27149 fps=487 q=-0.0 size=N/A time=00:18:52.33 bitrate=N/A speed=20.3x    frame=27437 fps=487 q=-0.0 size=N/A time=00:19:04.35 bitrate=N/A speed=20.3x    frame=27734 fps=488 q=-0.0 size=N/A time=00:19:16.73 bitrate=N/A speed=20.4x    frame=27996 fps=488 q=-0.0 size=N/A time=00:19:27.66 bitrate=N/A speed=20.4x    frame=28246 fps=488 q=-0.0 size=N/A time=00:19:38.09 bitrate=N/A speed=20.4x    frame=28504 fps=488 q=-0.0 size=N/A time=00:19:48.85 bitrate=N/A speed=20.4x    frame=28763 fps=488 q=-0.0 size=N/A time=00:19:59.65 bitrate=N/A speed=20.4x    frame=28956 fps=487 q=-0.0 size=N/A time=00:20:07.70 bitrate=N/A speed=20.3x    frame=29188 fps=487 q=-0.0 size=N/A time=00:20:17.38 bitrate=N/A speed=20.3x    frame=29462 fps=487 q=-0.0 size=N/A time=00:20:28.81 bitrate=N/A speed=20.3x    frame=29722 fps=487 q=-0.0 size=N/A time=00:20:39.65 bitrate=N/A speed=20.3x    frame=29995 fps=488 q=-0.0 size=N/A time=00:20:51.04 bitrate=N/A speed=20.3x    frame=30229 fps=488 q=-0.0 size=N/A time=00:21:00.80 bitrate=N/A speed=20.3x    frame=30500 fps=488 q=-0.0 size=N/A time=00:21:12.10 bitrate=N/A speed=20.3x    frame=30764 fps=488 q=-0.0 size=N/A time=00:21:23.11 bitrate=N/A speed=20.4x    frame=31017 fps=488 q=-0.0 size=N/A time=00:21:33.66 bitrate=N/A speed=20.4x    frame=31250 fps=488 q=-0.0 size=N/A time=00:21:43.38 bitrate=N/A speed=20.3x    frame=31457 fps=487 q=-0.0 size=N/A time=00:21:52.01 bitrate=N/A speed=20.3x    frame=31666 fps=486 q=-0.0 size=N/A time=00:22:00.73 bitrate=N/A speed=20.3x    frame=31895 fps=486 q=-0.0 size=N/A time=00:22:10.28 bitrate=N/A speed=20.3x    frame=32174 fps=487 q=-0.0 size=N/A time=00:22:21.92 bitrate=N/A speed=20.3x    frame=32420 fps=487 q=-0.0 size=N/A time=00:22:32.18 bitrate=N/A speed=20.3x    frame=32698 fps=487 q=-0.0 size=N/A time=00:22:43.77 bitrate=N/A speed=20.3x    frame=32964 fps=487 q=-0.0 size=N/A time=00:22:54.87 bitrate=N/A speed=20.3x    frame=33204 fps=487 q=-0.0 size=N/A time=00:23:04.88 bitrate=N/A speed=20.3x    frame=33420 fps=486 q=-0.0 size=N/A time=00:23:13.89 bitrate=N/A speed=20.3x    frame=33553 fps=485 q=-0.0 size=N/A time=00:23:19.43 bitrate=N/A speed=20.2x    frame=33726 fps=484 q=-0.0 size=N/A time=00:23:26.65 bitrate=N/A speed=20.2x    frame=33882 fps=482 q=-0.0 size=N/A time=00:23:33.16 bitrate=N/A speed=20.1x    frame=34071 fps=481 q=-0.0 size=N/A time=00:23:41.04 bitrate=N/A speed=20.1x    frame=34229 fps=480 q=-0.0 size=N/A time=00:23:47.63 bitrate=N/A speed=  20x    frame=34409 fps=479 q=-0.0 size=N/A time=00:23:55.14 bitrate=N/A speed=  20x    frame=34561 fps=478 q=-0.0 size=N/A time=00:24:01.48 bitrate=N/A speed=19.9x    frame=34698 fps=476 q=-0.0 size=N/A time=00:24:07.19 bitrate=N/A speed=19.9x    frame=34896 fps=476 q=-0.0 size=N/A time=00:24:15.45 bitrate=N/A speed=19.8x    frame=35112 fps=475 q=-0.0 size=N/A time=00:24:24.46 bitrate=N/A speed=19.8x    frame=35342 fps=475 q=-0.0 size=N/A time=00:24:34.05 bitrate=N/A speed=19.8x    frame=35568 fps=475 q=-0.0 size=N/A time=00:24:43.48 bitrate=N/A speed=19.8x    [Parsed_ssim_10 @ 0000023c0ac56440] SSIM Y:0.995494 (23.461907) U:0.995134 (23.128202) V:0.995239 (23.222741) All:0.995391 (23.364225)
[out#0/null @ 0000023c0a7e0f40] video:15367KiB audio:279696KiB subtitle:0KiB other streams:0KiB global headers:0KiB muxing overhead: unknown
frame=35763 fps=475 q=-0.0 Lsize=N/A time=00:24:51.61 bitrate=N/A speed=19.8x    
